# xmcd
#
# Track frame offsets: 
# 150
# 36547
# 75929
# 99219
# 136835
# 174362
# 215767
# 274511
#
# Disc length: 4215 seconds
# Submitted via: tkcNetwork 1.0
# Revision: 0
# Processed by: cddbd v1.5.1PL0 Copyright (c) Steve Scherf et al.
#
DISCID=61107508
DTITLE=Offramp - Offramp
DYEAR=1900
DGENRE=
TTITLE0=Fallen
TTITLE1=Locomotive Man
TTITLE2=The River's Wide
TTITLE3=Torch Song
TTITLE4=Alone
TTITLE5=Stone's Throw
TTITLE6=Signals
TTITLE7=Resistance
EXTD=
EXTT0=
EXTT1=
EXTT2=
EXTT3=
EXTT4=
EXTT5=
EXTT6=
EXTT7=
PLAYORDER=
